<?xml version="1.0" encoding="utf-8"?>
<!-- Generator: Adobe Illustrator 21.1.0, SVG Export Plug-In . SVG Version: 6.00 Build 0)  -->
<svg version="1.1" id="Layer_1" xmlns="http://www.w3.org/2000/svg" xmlns:xlink="http://www.w3.org/1999/xlink" x="0px" y="0px"
	 viewBox="0 0 451 248" style="enable-background:new 0 0 451 248;" xml:space="preserve">
<style type="text/css">
	.st0{fill:#358C1F;}
	.st1{fill:#FFEF78;}
</style>
<g>
	<rect class="st0" width="451" height="248"/>
	<g>
		<g>
			<path class="st1" d="M277.36,79.86l-7.11,29.22l-8.08-29.22h-14.8l12.05,39.06h-12.05l15.19,49.22h14.1l14.8-49.22h-11.75
				l11.75-39.06H277.36z"/>
			<polygon class="st1" points="120.53,118.92 105.99,118.92 94.45,135.26 94.45,118.92 80.22,118.92 80.22,168.14 94.45,168.14 
				94.45,153.4 97.21,149.68 106.05,168.14 122.26,168.14 106.31,138.27 			"/>
			<path class="st1" d="M161.81,151.8c-0.58-4.23-3.14-6.41-6.79-7.05c3.65-0.58,8.59-4.49,8.59-11.15
				c0-9.42-6.15-14.68-17.75-14.68h-19.48v49.22h13.84v-18.39h3.52c2.69,0,3.72,1.47,4.17,4.36c0.32,1.92,0.64,6.02,0.83,7.69
				c0.32,2.82,1.15,5.38,1.92,6.34h14.48c-1.09-1.09-2.05-4.17-2.37-7.24C162.51,158.46,162.19,154.55,161.81,151.8z"/>
			<polygon class="st1" points="369.4,129.24 369.4,129.08 371,129.08 371,118.44 350.49,118.44 350.49,109.15 367.48,109.15 
				367.48,98.96 350.49,98.96 350.49,90.18 369.4,90.18 369.4,79.86 336.26,79.86 336.26,118.92 336.26,129.08 336.26,168.14 
				371,168.14 371,157.5 350.49,157.5 350.49,148.21 367.48,148.21 367.48,138.02 350.49,138.02 350.49,129.24 			"/>
			<polygon class="st1" points="185.14,109.15 202.12,109.15 202.12,98.96 185.14,98.96 185.14,90.18 204.04,90.18 204.04,79.86 
				170.91,79.86 170.91,118.92 170.91,129.08 170.91,168.14 205.64,168.14 205.64,157.5 185.14,157.5 185.14,148.21 202.12,148.21 
				202.12,138.02 185.14,138.02 185.14,129.24 204.04,129.24 204.04,129.08 205.65,129.08 205.65,118.44 185.14,118.44 			"/>
			<polygon class="st1" points="225.71,109.15 242.69,109.15 242.69,98.96 225.71,98.96 225.71,90.18 244.61,90.18 244.61,79.86 
				211.48,79.86 211.48,118.92 211.48,129.08 211.48,168.14 246.22,168.14 246.22,157.5 225.71,157.5 225.71,148.21 242.69,148.21 
				242.69,138.02 225.71,138.02 225.71,129.24 244.61,129.24 244.61,129.08 246.22,129.08 246.22,118.44 225.71,118.44 			"/>
			<polygon class="st1" points="309.92,109.15 326.91,109.15 326.91,98.96 309.92,98.96 309.92,90.18 328.83,90.18 328.83,79.86 
				295.69,79.86 295.69,118.92 295.69,129.08 295.69,168.14 330.43,168.14 330.43,157.5 309.92,157.5 309.92,148.21 326.91,148.21 
				326.91,138.02 309.92,138.02 309.92,129.24 328.83,129.24 328.83,129.08 330.43,129.08 330.43,118.44 309.92,118.44 			"/>
		</g>
	</g>
</g>
</svg>
